<svg id="svg" xmlns="http://www.w3.org/2000/svg" xmlns:xlink="http://www.w3.org/1999/xlink" width="400" height="405.9139784946237" viewBox="0, 0, 400,405.9139784946237"><g id="svgg"><path id="path0" d="M121.307 1.210 C 119.040 9.667,124.700 23.950,134.603 34.762 C 136.270 36.583,137.634 38.300,137.634 38.578 C 137.634 38.856,138.106 39.301,138.683 39.568 C 139.259 39.835,141.860 42.023,144.462 44.430 C 152.057 51.455,154.831 53.839,159.680 57.507 C 162.192 59.407,164.610 61.345,165.054 61.812 C 165.497 62.280,166.518 63.080,167.322 63.590 C 170.608 65.678,179.271 73.683,181.546 76.735 C 182.378 77.851,183.214 78.884,183.403 79.032 C 184.436 79.837,187.096 85.163,186.675 85.583 C 186.388 85.870,185.911 85.729,185.503 85.238 C 185.124 84.782,184.344 84.409,183.770 84.409 C 183.195 84.409,182.197 84.113,181.551 83.753 C 180.905 83.392,179.651 82.813,178.763 82.466 C 173.509 80.413,168.758 78.479,166.655 77.536 C 165.331 76.943,162.796 75.915,161.022 75.252 C 157.486 73.931,153.317 72.303,150.806 71.263 C 149.919 70.896,148.226 70.293,147.043 69.923 C 145.860 69.554,143.925 68.815,142.742 68.282 C 141.559 67.749,138.535 66.543,136.022 65.602 C 133.508 64.661,130.242 63.408,128.763 62.819 C 127.285 62.229,124.391 61.157,122.332 60.436 C 116.695 58.463,117.130 57.752,125.151 55.833 C 127.533 55.263,137.861 55.501,140.450 56.185 C 143.760 57.060,142.369 52.105,138.358 48.730 C 132.049 43.421,118.409 41.062,91.341 40.597 C 64.799 40.141,56.762 39.080,39.849 33.799 C 36.188 32.656,32.861 31.720,32.456 31.720 C 32.052 31.720,31.720 31.464,31.720 31.151 C 31.720 30.838,31.483 30.728,31.194 30.907 C 30.904 31.086,30.179 30.971,29.581 30.651 C 27.506 29.540,28.386 31.561,31.207 34.382 C 35.601 38.776,50.881 47.849,53.885 47.849 C 54.410 47.849,54.839 48.091,54.839 48.387 C 54.839 48.683,55.020 48.886,55.242 48.839 C 55.464 48.792,56.129 48.952,56.720 49.193 C 60.343 50.673,63.510 51.828,65.860 52.527 C 67.339 52.967,69.274 53.639,70.161 54.021 C 73.070 55.275,77.659 56.944,79.167 57.297 C 79.980 57.488,80.645 57.848,80.645 58.098 C 80.645 58.349,81.552 58.723,82.661 58.931 C 84.641 59.302,86.304 59.909,90.591 61.825 C 91.774 62.354,94.919 63.679,97.581 64.769 C 103.652 67.255,114.726 72.638,114.964 73.219 C 115.063 73.460,115.553 73.656,116.054 73.656 C 116.555 73.656,117.442 73.985,118.026 74.388 C 118.609 74.790,121.626 76.456,124.731 78.089 C 133.056 82.467,136.762 84.483,137.366 84.963 C 137.661 85.198,139.597 86.283,141.667 87.374 C 143.737 88.465,145.812 89.696,146.279 90.109 C 146.746 90.522,147.253 90.860,147.406 90.860 C 147.560 90.860,150.792 92.578,154.590 94.677 C 160.068 97.704,170.243 102.676,176.882 105.570 C 177.325 105.763,176.599 105.802,175.269 105.656 C 173.938 105.511,170.430 105.138,167.473 104.829 C 164.516 104.519,160.403 104.006,158.333 103.690 C 145.098 101.666,126.159 102.708,115.899 106.024 C 109.044 108.239,109.301 108.744,117.747 109.660 C 125.103 110.459,132.266 111.626,138.069 112.973 C 140.639 113.570,143.857 114.262,145.220 114.511 C 149.030 115.209,160.257 118.181,162.366 119.051 C 163.401 119.478,167.211 120.736,170.833 121.847 C 177.647 123.938,178.455 124.418,175.941 124.883 C 175.128 125.033,172.725 125.675,170.602 126.308 L 166.742 127.461 160.656 125.529 C 157.309 124.467,153.602 123.341,152.419 123.027 C 151.237 122.713,149.618 122.219,148.823 121.929 C 146.793 121.189,146.366 121.612,144.020 126.691 C 137.777 140.204,137.708 157.133,143.845 169.672 C 145.160 172.360,146.237 174.961,146.237 175.452 C 146.237 175.943,146.418 176.346,146.640 176.348 C 146.862 176.350,147.646 177.257,148.382 178.364 C 149.119 179.471,149.861 180.497,150.031 180.645 C 150.201 180.793,151.107 182.042,152.044 183.420 C 152.982 184.798,155.921 187.933,158.575 190.386 C 162.984 194.462,164.193 195.335,168.280 197.397 C 169.019 197.770,170.201 198.508,170.906 199.038 C 171.611 199.567,172.714 200.000,173.357 200.000 C 174.000 200.000,174.995 200.355,175.569 200.789 C 177.731 202.424,180.506 201.388,178.855 199.563 C 178.403 199.064,177.544 197.567,176.946 196.237 C 176.347 194.906,175.506 193.212,175.077 192.473 C 170.448 184.506,167.969 170.687,169.281 160.172 C 169.811 155.926,172.471 146.249,173.377 145.273 C 173.457 145.186,174.974 146.933,176.748 149.155 C 179.485 152.584,184.582 157.355,185.484 157.333 C 185.632 157.329,186.358 157.712,187.097 158.184 C 190.637 160.445,197.962 162.046,211.290 163.472 C 254.632 168.111,273.879 185.769,272.349 219.489 C 271.950 228.285,272.095 228.626,274.882 225.444 C 275.834 224.357,277.520 222.533,278.629 221.391 C 279.738 220.248,280.645 219.113,280.645 218.868 C 280.645 218.502,284.420 212.470,285.892 210.484 C 286.111 210.188,286.306 209.704,286.325 209.409 C 286.416 207.988,287.912 203.763,288.323 203.763 C 288.580 203.763,288.741 204.913,288.682 206.317 C 288.623 207.722,288.748 209.283,288.959 209.786 C 289.170 210.289,289.213 210.911,289.054 211.168 C 288.896 211.424,288.609 212.793,288.417 214.209 C 288.225 215.626,287.470 218.875,286.739 221.430 C 282.859 234.998,283.016 249.371,287.105 254.951 C 287.692 255.753,288.172 256.616,288.172 256.871 C 288.172 257.681,292.038 261.883,292.608 261.693 C 292.909 261.593,293.241 259.829,293.345 257.774 C 293.558 253.568,295.018 246.389,295.753 245.934 C 296.019 245.770,296.237 245.202,296.237 244.673 C 296.237 243.081,299.906 236.560,303.282 232.151 C 305.025 229.874,306.464 227.818,306.479 227.581 C 306.494 227.344,307.579 225.699,308.890 223.925 C 318.606 210.778,320.122 192.201,312.132 184.211 C 307.140 179.219,295.785 177.136,283.995 179.050 C 280.247 179.658,279.200 179.343,276.827 176.890 C 276.057 176.095,274.484 174.740,273.332 173.878 C 272.179 173.017,270.995 172.039,270.699 171.705 C 270.403 171.371,268.647 170.131,266.796 168.949 C 264.945 167.766,262.932 166.165,262.322 165.389 C 261.712 164.613,260.806 163.972,260.310 163.963 C 259.475 163.949,254.063 160.715,252.100 159.057 C 250.152 157.411,235.716 149.951,230.376 147.830 C 223.154 144.962,221.480 144.582,214.593 144.247 L 207.950 143.925 208.262 142.002 C 208.434 140.944,209.073 139.468,209.683 138.722 C 210.293 137.976,210.932 136.942,211.104 136.425 C 211.840 134.205,224.895 135.941,234.140 139.487 C 236.210 140.281,238.327 141.064,238.844 141.227 C 239.362 141.390,239.785 141.737,239.785 141.998 C 239.785 142.259,240.214 142.473,240.738 142.473 C 241.927 142.473,251.799 147.933,257.074 151.507 C 259.245 152.978,261.868 154.643,262.903 155.207 C 263.938 155.771,266.478 157.333,268.548 158.677 C 279.915 166.059,286.961 168.055,308.065 169.867 C 323.557 171.198,330.327 176.470,331.053 187.769 C 331.381 192.871,331.538 192.883,336.041 188.151 C 348.819 174.724,351.697 150.410,342.021 137.634 C 334.000 127.044,326.037 123.657,316.533 126.793 L 313.461 127.806 313.206 126.134 C 313.065 125.215,312.806 123.329,312.630 121.944 C 312.280 119.187,310.760 114.492,309.850 113.354 C 309.533 112.958,308.889 111.909,308.418 111.022 C 306.586 107.570,300.069 101.557,295.161 98.788 C 290.609 96.221,289.023 96.367,291.532 99.123 C 293.801 101.615,294.624 102.700,294.624 103.201 C 294.624 103.477,295.059 104.019,295.592 104.405 C 296.915 105.365,299.744 111.471,300.476 114.946 C 302.140 122.856,299.957 130.065,294.560 134.475 C 290.111 138.111,286.605 139.167,288.479 136.308 C 289.794 134.300,290.123 125.272,289.036 121.027 C 287.565 115.287,283.258 108.293,277.578 102.419 C 274.764 99.510,271.437 95.617,268.848 92.204 C 267.951 91.022,267.029 89.812,266.798 89.516 C 265.939 88.413,262.366 82.873,262.366 82.645 C 262.366 82.514,261.411 80.671,260.245 78.549 C 259.078 76.427,257.955 74.155,257.747 73.501 C 256.332 69.033,247.734 58.621,242.582 55.137 C 238.346 52.272,238.240 52.314,239.664 56.304 C 241.372 61.091,242.096 65.520,241.735 68.977 C 241.355 72.609,239.944 77.795,239.212 78.248 C 238.936 78.418,238.710 78.921,238.710 79.364 C 238.710 80.717,235.357 84.534,234.861 83.745 C 234.626 83.371,234.558 82.662,234.712 82.169 C 235.648 79.155,231.637 64.382,228.442 59.075 C 225.481 54.160,216.003 43.548,214.573 43.548 C 214.349 43.548,212.733 42.461,210.981 41.132 C 209.229 39.802,207.549 38.532,207.247 38.309 C 206.944 38.086,203.920 36.039,200.526 33.760 C 188.399 25.620,180.552 15.831,179.772 7.869 C 179.352 3.590,179.077 2.688,178.191 2.688 C 177.074 2.688,174.864 7.618,174.433 11.072 C 173.543 18.192,177.808 27.689,185.154 34.946 C 187.100 36.868,188.696 38.717,188.701 39.055 C 188.706 39.392,189.254 39.813,189.919 39.990 C 190.585 40.167,191.976 41.033,193.011 41.916 C 194.046 42.799,195.705 44.192,196.698 45.013 C 199.510 47.338,206.602 54.415,207.796 56.088 C 208.387 56.917,209.294 58.064,209.812 58.636 C 210.329 59.209,210.753 59.812,210.753 59.976 C 210.753 60.141,211.480 61.742,212.369 63.534 C 213.258 65.326,214.142 67.768,214.333 68.962 C 214.685 71.164,214.478 71.263,212.634 69.776 C 205.724 64.202,202.899 62.591,175.806 48.786 C 168.858 45.245,162.132 41.650,160.860 40.797 C 159.589 39.945,158.459 39.247,158.349 39.247 C 158.240 39.247,156.135 37.875,153.672 36.197 C 141.003 27.567,128.530 13.941,123.652 3.401 C 121.898 -0.388,121.768 -0.510,121.307 1.210 M244.428 25.150 C 244.246 25.445,245.486 26.225,247.183 26.883 C 248.880 27.542,251.294 28.537,252.548 29.094 C 253.801 29.651,254.976 30.108,255.159 30.108 C 255.342 30.108,257.099 30.850,259.063 31.758 C 261.027 32.666,263.118 33.605,263.710 33.845 C 266.097 34.813,275.659 39.851,280.901 42.903 C 285.889 45.806,294.369 51.516,295.422 52.680 C 295.962 53.276,296.686 53.763,297.033 53.763 C 297.379 53.763,298.249 54.389,298.965 55.154 C 299.682 55.919,302.096 57.827,304.330 59.394 C 312.444 65.084,329.639 82.167,334.641 89.507 C 335.253 90.404,336.187 91.620,336.717 92.209 C 338.248 93.909,342.076 98.973,343.826 101.613 C 344.708 102.944,345.710 104.329,346.052 104.692 C 346.394 105.055,346.997 106.084,347.393 106.977 C 347.788 107.871,348.274 108.602,348.472 108.602 C 349.498 108.602,360.788 130.330,361.532 133.737 C 361.742 134.698,362.136 135.484,362.408 135.484 C 362.681 135.484,362.903 135.739,362.903 136.051 C 362.903 136.363,363.344 137.633,363.883 138.874 C 366.189 144.180,367.742 148.738,367.742 150.202 C 367.742 150.715,368.219 152.181,368.802 153.461 C 369.806 155.666,371.108 160.863,372.917 169.892 C 378.774 199.129,375.185 234.435,363.709 260.484 C 358.301 272.759,354.436 279.956,348.984 287.903 C 347.362 290.269,345.530 292.943,344.914 293.846 C 340.738 299.966,327.500 314.021,321.723 318.467 C 320.512 319.399,318.291 321.129,316.787 322.312 C 310.781 327.036,306.653 329.740,298.925 334.016 C 293.953 336.767,293.300 337.090,292.711 337.093 C 292.398 337.095,290.463 337.948,288.410 338.989 C 285.242 340.595,272.677 344.907,268.280 345.897 C 267.540 346.063,265.363 346.568,263.441 347.018 C 237.950 352.988,204.082 351.917,178.763 344.341 C 176.398 343.633,172.648 342.536,170.430 341.903 C 168.212 341.269,165.445 340.292,164.281 339.730 C 163.116 339.169,161.966 338.710,161.724 338.710 C 161.483 338.710,160.031 338.105,158.499 337.366 C 156.967 336.626,155.524 336.022,155.293 336.022 C 153.888 336.022,138.635 327.912,132.891 324.111 C 130.725 322.678,128.722 321.505,128.438 321.505 C 128.155 321.505,127.784 321.142,127.614 320.699 C 127.444 320.255,127.086 319.892,126.819 319.892 C 126.310 319.892,117.325 313.240,116.398 312.176 C 116.102 311.837,114.892 310.846,113.710 309.975 C 98.308 298.627,81.334 275.543,70.866 251.706 C 69.489 248.569,66.287 239.331,65.338 235.753 C 64.945 234.274,64.248 231.734,63.788 230.108 C 62.616 225.959,62.520 225.513,61.780 220.784 C 60.804 214.541,60.131 214.702,53.590 222.749 C 51.465 225.362,46.230 235.802,44.827 240.225 C 42.453 247.705,40.438 257.123,39.476 265.235 C 38.868 270.357,35.416 264.310,34.441 256.415 C 33.905 252.077,33.973 250.780,35.289 240.323 C 35.708 236.989,34.948 237.024,33.241 240.418 C 26.636 253.546,25.160 271.004,28.795 293.011 C 28.966 294.046,29.316 295.376,29.572 295.968 C 29.829 296.559,30.661 299.099,31.420 301.613 C 32.179 304.126,33.137 306.909,33.549 307.796 C 33.961 308.683,34.867 310.739,35.563 312.364 C 38.293 318.743,43.452 327.481,48.286 333.912 C 49.081 334.969,50.531 336.904,51.508 338.213 C 54.390 342.071,58.501 346.568,64.516 352.441 C 70.511 358.294,73.263 360.629,80.914 366.354 C 82.688 367.681,84.745 369.225,85.484 369.784 C 88.923 372.385,95.713 376.833,98.387 378.236 C 100.013 379.089,101.718 380.094,102.175 380.469 C 103.426 381.495,120.143 389.686,124.167 391.245 C 132.496 394.470,146.416 398.964,152.142 400.277 C 155.547 401.057,158.753 401.919,159.267 402.192 C 159.780 402.465,160.990 402.689,161.955 402.690 C 162.920 402.691,165.766 403.034,168.280 403.452 C 170.793 403.870,174.664 404.346,176.882 404.510 C 179.099 404.674,184.059 405.073,187.903 405.398 C 196.951 406.162,212.683 405.426,221.774 403.814 C 234.207 401.609,233.734 401.073,217.204 398.637 C 206.172 397.012,200.126 395.905,196.774 394.899 C 195.444 394.499,192.540 393.756,190.323 393.248 C 186.538 392.380,176.307 389.233,173.925 388.204 C 173.333 387.949,171.277 387.193,169.355 386.524 C 167.433 385.856,165.618 385.136,165.323 384.924 C 165.027 384.713,164.180 384.359,163.441 384.138 C 161.292 383.495,143.630 374.585,139.641 372.131 C 137.640 370.900,135.901 369.892,135.777 369.892 C 135.527 369.892,129.423 365.753,126.075 363.314 C 116.107 356.049,115.022 355.160,107.861 348.387 C 94.731 335.968,80.108 316.015,80.108 310.518 C 80.108 310.091,79.884 309.603,79.612 309.434 C 79.203 309.182,77.419 302.563,77.419 301.300 C 77.419 301.097,77.903 301.545,78.495 302.297 C 79.086 303.049,79.570 303.823,79.570 304.017 C 79.570 304.211,80.178 305.020,80.921 305.814 C 81.664 306.608,83.584 308.892,85.187 310.889 C 86.791 312.886,89.180 315.669,90.497 317.072 C 91.814 318.475,93.494 320.349,94.230 321.237 C 96.270 323.695,105.182 332.264,109.409 335.831 C 118.859 343.808,127.185 349.591,138.710 356.185 C 142.110 358.130,145.255 359.949,145.699 360.226 C 147.072 361.084,158.193 366.421,160.885 367.513 C 162.289 368.082,163.438 368.730,163.439 368.952 C 163.440 369.173,163.807 369.355,164.255 369.355 C 164.702 369.355,165.488 369.560,166.002 369.811 C 166.515 370.062,168.508 370.815,170.430 371.485 C 172.352 372.155,174.892 373.066,176.075 373.510 C 177.258 373.955,179.435 374.630,180.914 375.010 C 182.392 375.391,185.296 376.215,187.366 376.841 C 192.928 378.523,203.506 380.758,211.559 381.954 C 239.665 386.128,267.302 384.372,290.323 376.951 C 301.639 373.302,301.440 373.380,307.069 370.388 C 309.806 368.932,312.323 367.742,312.661 367.742 C 312.999 367.742,313.786 367.319,314.408 366.801 C 315.031 366.284,316.767 365.134,318.267 364.247 C 325.903 359.731,341.427 347.095,347.661 340.323 C 350.649 337.076,354.093 333.099,354.777 332.104 C 355.228 331.449,355.869 330.672,356.202 330.376 C 359.044 327.856,371.483 310.070,375.003 303.495 C 380.599 293.040,382.207 289.777,384.538 284.150 C 387.644 276.650,392.562 262.350,393.509 258.065 C 393.869 256.438,394.368 254.624,394.619 254.032 C 394.870 253.441,395.203 252.110,395.360 251.075 C 395.516 250.040,396.139 246.290,396.746 242.742 C 400.444 221.089,400.456 195.115,396.777 178.226 C 396.519 177.043,396.018 174.503,395.663 172.581 C 395.307 170.659,394.663 167.755,394.231 166.129 C 393.798 164.503,393.247 162.325,393.006 161.290 C 392.025 157.076,386.217 140.641,384.119 136.141 C 383.391 134.581,382.796 132.841,382.796 132.275 C 382.796 131.709,382.560 131.101,382.273 130.923 C 381.985 130.745,380.766 128.614,379.564 126.187 C 369.666 106.209,354.997 86.721,336.624 69.142 C 331.143 63.898,331.032 63.798,328.495 61.834 C 327.164 60.804,325.752 59.652,325.357 59.274 C 324.961 58.895,323.752 57.926,322.669 57.119 C 321.585 56.312,320.578 55.503,320.430 55.322 C 320.020 54.821,305.037 44.808,303.356 43.913 C 302.545 43.481,298.978 41.523,295.430 39.564 C 291.882 37.604,288.374 35.853,287.634 35.673 C 286.895 35.493,285.444 34.910,284.409 34.377 C 280.227 32.225,269.171 28.512,262.903 27.155 C 260.685 26.674,258.024 26.072,256.989 25.815 C 253.835 25.034,244.796 24.555,244.428 25.150 M90.300 72.776 C 90.140 72.940,88.325 73.316,86.268 73.613 C 80.530 74.441,78.857 74.764,77.688 75.269 C 77.097 75.524,74.315 76.505,71.505 77.449 C 58.259 81.897,43.346 89.509,34.140 96.522 C 33.548 96.973,31.613 98.417,29.839 99.731 C 25.367 103.044,25.269 103.142,25.269 104.286 C 25.269 105.299,26.945 105.527,28.288 104.698 C 29.481 103.960,37.551 102.354,48.118 100.751 C 55.957 99.562,85.297 99.313,90.323 100.393 C 91.949 100.743,94.631 101.183,96.282 101.372 L 99.284 101.715 102.664 98.841 C 104.522 97.261,107.405 94.913,109.070 93.624 C 113.145 90.470,113.336 90.027,111.179 88.748 C 110.205 88.170,109.116 87.442,108.759 87.129 C 108.402 86.815,107.924 86.559,107.696 86.559 C 107.468 86.559,104.615 85.494,101.356 84.193 C 98.097 82.891,94.268 81.525,92.847 81.157 C 89.515 80.295,89.909 79.994,97.170 77.855 C 100.493 76.876,103.214 75.805,103.218 75.474 C 103.232 74.364,91.205 71.852,90.300 72.776 M206.108 90.995 C 206.755 92.510,208.250 94.135,214.213 99.805 C 218.399 103.785,224.955 106.093,235.484 107.290 C 246.314 108.522,259.888 114.151,258.285 116.745 C 258.129 116.998,258.453 117.204,259.006 117.204 C 261.516 117.204,272.190 131.439,270.475 132.499 C 269.896 132.857,257.727 131.358,254.290 130.505 C 249.960 129.430,246.618 127.592,243.134 124.366 C 237.874 119.496,236.512 118.783,228.284 116.592 C 213.586 112.680,206.358 105.045,205.067 92.070 C 204.744 88.824,205.047 88.511,206.108 90.995 M80.376 113.448 C 56.010 115.318,26.068 136.311,10.484 162.450 C 6.712 168.777,1.613 178.628,1.613 179.588 C 1.613 179.874,1.411 180.108,1.165 180.108 C 0.918 180.108,0.694 180.410,0.666 180.780 C 0.638 181.149,0.449 181.996,0.245 182.661 C -0.361 184.640,1.064 184.121,4.301 181.183 C 5.927 179.707,7.532 178.498,7.866 178.497 C 8.201 178.496,9.120 177.648,9.910 176.613 C 10.699 175.578,11.696 174.731,12.124 174.731 C 12.553 174.731,12.903 174.524,12.903 174.270 C 12.903 173.845,18.390 169.886,19.624 169.421 C 19.919 169.309,20.645 168.805,21.237 168.301 C 25.334 164.808,47.338 153.141,53.763 151.055 C 54.503 150.815,56.438 150.100,58.065 149.468 C 62.691 147.668,68.766 145.699,69.693 145.699 C 70.610 145.699,73.656 142.705,73.656 141.805 C 73.656 141.006,78.097 134.461,80.083 132.332 C 82.014 130.263,81.976 129.595,79.869 128.569 L 78.366 127.836 85.164 121.311 C 88.903 117.722,91.956 114.615,91.949 114.407 C 91.930 113.877,88.177 112.892,86.559 112.993 C 85.820 113.039,83.038 113.244,80.376 113.448 M100.381 135.618 C 98.400 138.058,96.560 140.319,96.294 140.644 C 93.970 143.474,88.996 152.847,86.762 158.602 C 86.017 160.524,85.199 162.581,84.946 163.172 C 78.000 179.404,77.671 211.906,84.262 230.914 C 84.980 232.984,85.757 235.429,85.989 236.347 C 86.388 237.925,90.007 245.319,93.369 251.423 C 98.670 261.049,111.643 275.567,118.626 279.687 C 119.618 280.272,120.430 281.090,120.430 281.505 C 120.430 281.919,120.809 282.258,121.272 282.258 C 121.736 282.258,122.908 282.863,123.877 283.602 C 124.846 284.341,125.793 284.946,125.981 284.946 C 126.169 284.946,127.693 285.822,129.366 286.893 C 134.711 290.312,146.386 295.459,150.184 296.071 C 152.394 296.427,151.966 295.873,142.460 286.093 C 137.884 281.384,132.688 275.993,130.914 274.111 C 127.310 270.290,118.760 259.187,116.352 255.201 C 113.315 250.173,111.272 246.472,109.772 243.280 C 108.427 240.416,107.595 238.492,105.126 232.527 C 104.759 231.640,104.154 229.583,103.782 227.957 C 103.409 226.331,102.771 223.872,102.363 222.493 C 97.741 206.865,98.809 183.273,104.843 167.742 C 105.475 166.116,106.261 164.059,106.589 163.172 C 106.917 162.285,107.504 161.239,107.894 160.849 C 108.283 160.458,108.602 159.815,108.602 159.421 C 108.602 158.370,113.816 149.668,116.502 146.237 C 119.460 142.457,119.465 141.614,116.532 140.825 C 112.533 139.749,107.527 136.160,107.527 134.369 C 107.527 133.741,105.084 131.183,104.484 131.183 C 104.209 131.183,102.363 133.179,100.381 135.618 M323.727 140.898 C 324.776 141.460,327.957 145.983,327.957 146.913 C 327.957 147.169,327.050 147.198,325.941 146.977 C 324.832 146.757,321.687 146.594,318.952 146.617 C 313.347 146.662,313.387 146.696,315.746 143.976 C 318.533 140.763,321.405 139.656,323.727 140.898 M61.559 163.658 C 59.127 164.603,53.755 167.462,51.455 169.035 C 50.333 169.802,49.288 170.430,49.134 170.430 C 48.979 170.430,48.060 171.035,47.091 171.774 C 46.122 172.513,45.096 173.118,44.812 173.118 C 44.245 173.118,32.168 184.784,30.062 187.366 C 25.015 193.553,18.628 203.324,16.884 207.527 C 16.700 207.970,15.999 209.543,15.327 211.022 C 9.744 223.299,5.744 239.059,5.014 251.656 C 4.689 257.269,5.033 261.290,5.838 261.290 C 6.270 261.290,9.140 254.338,9.140 253.291 C 9.140 252.960,9.363 252.688,9.636 252.688 C 9.908 252.688,10.423 251.781,10.779 250.672 C 11.135 249.563,11.740 248.293,12.123 247.849 C 12.506 247.406,12.985 246.378,13.188 245.565 C 13.391 244.751,13.716 244.086,13.910 244.086 C 14.104 244.086,14.827 242.896,15.517 241.442 C 16.208 239.989,17.233 238.305,17.795 237.701 C 18.357 237.098,18.817 236.460,18.817 236.285 C 18.817 235.892,25.452 226.968,28.207 223.656 C 35.070 215.404,46.789 204.838,54.801 199.679 C 58.530 197.277,58.892 196.512,59.363 190.054 C 60.006 181.225,61.948 171.261,63.778 167.405 C 64.282 166.343,64.495 165.044,64.296 164.251 C 63.924 162.768,63.877 162.757,61.559 163.658 M120.891 171.642 C 116.660 182.586,115.058 198.637,117.876 201.862 C 120.865 205.280,130.966 206.327,138.574 204.007 C 143.868 202.392,144.270 201.776,141.996 198.756 C 136.958 192.063,132.070 184.907,131.222 182.982 C 130.941 182.346,130.475 181.679,130.185 181.500 C 129.896 181.321,128.177 178.515,126.366 175.265 C 122.707 168.699,122.167 168.342,120.891 171.642 M146.755 208.079 C 137.495 213.101,127.166 213.770,118.073 209.934 C 117.127 209.535,117.084 209.706,117.430 212.477 C 118.363 219.944,121.807 228.337,125.661 232.538 C 132.312 239.788,150.027 240.948,162.136 234.927 C 170.542 230.747,171.231 229.453,167.155 225.503 C 162.017 220.522,161.017 219.515,155.376 213.635 C 148.555 206.525,149.042 206.838,146.755 208.079 M175.000 236.022 C 174.465 236.613,173.806 237.097,173.537 237.097 C 173.267 237.097,172.265 237.693,171.309 238.422 C 163.332 244.507,146.367 247.703,138.172 244.666 C 135.846 243.803,132.897 243.488,132.541 244.063 C 132.190 244.631,132.515 245.126,135.215 248.123 C 136.102 249.108,137.796 251.043,138.978 252.424 C 152.819 268.582,174.464 272.757,193.280 262.898 C 199.568 259.603,202.688 257.303,202.688 255.963 C 202.688 255.725,200.462 253.620,197.740 251.286 C 195.019 248.953,192.097 246.378,191.247 245.565 C 190.397 244.751,189.523 244.086,189.303 244.086 C 189.083 244.086,188.414 243.542,187.815 242.876 C 187.217 242.211,185.556 240.699,184.125 239.516 C 182.694 238.333,181.040 236.821,180.450 236.156 C 179.077 234.609,176.339 234.541,175.000 236.022 M206.115 261.735 C 192.988 271.183,177.786 275.644,165.860 273.547 C 164.677 273.339,162.802 273.004,161.694 272.804 C 158.413 272.212,159.125 273.278,167.608 281.670 C 178.306 292.253,186.115 298.925,187.803 298.925 C 188.107 298.925,188.738 299.247,189.205 299.640 C 194.103 303.768,207.825 304.381,217.473 300.902 C 225.760 297.914,226.691 297.513,228.499 296.155 C 229.531 295.379,231.767 293.863,233.468 292.786 C 235.168 291.708,236.559 290.532,236.558 290.172 C 236.556 288.498,212.232 262.526,208.889 260.629 C 208.485 260.399,207.330 260.860,206.115 261.735 M240.194 300.305 C 227.950 308.324,212.416 312.273,201.344 310.181 C 195.286 309.036,194.624 308.984,194.624 309.653 C 194.624 310.355,197.422 314.482,199.194 316.394 C 200.676 317.994,202.151 319.858,202.151 320.134 C 202.151 320.260,202.896 321.165,203.808 322.144 C 204.720 323.124,206.672 325.739,208.148 327.957 C 211.661 333.239,212.344 333.471,227.138 334.402 C 238.918 335.144,257.140 333.355,257.897 331.382 C 258.260 330.436,254.849 320.113,252.680 315.591 C 244.806 299.178,243.798 297.944,240.194 300.305 " stroke="none" fill="#000000" fill-rule="evenodd"></path></g></svg>